<svg width="277" height="103" viewBox="0 0 277 103" fill="none" xmlns="http://www.w3.org/2000/svg">
<path d="M5.02 81L0.44 67H3.8L7.78 79.4H6.1L10.26 67H13.26L17.26 79.4H15.64L19.72 67H22.82L18.24 81H14.76L11.22 70.12H12.14L8.5 81H5.02ZM28.948 81.16C27.7213 81.16 26.6413 80.92 25.708 80.44C24.788 79.96 24.0746 79.3067 23.568 78.48C23.0613 77.64 22.808 76.6867 22.808 75.62C22.808 74.54 23.0546 73.5867 23.548 72.76C24.0546 71.92 24.7413 71.2667 25.608 70.8C26.4746 70.32 27.4546 70.08 28.548 70.08C29.6013 70.08 30.548 70.3067 31.388 70.76C32.2413 71.2 32.9146 71.84 33.408 72.68C33.9013 73.5067 34.148 74.5 34.148 75.66C34.148 75.78 34.1413 75.92 34.128 76.08C34.1146 76.2267 34.1013 76.3667 34.088 76.5H25.348V74.68H32.448L31.248 75.22C31.248 74.66 31.1346 74.1733 30.908 73.76C30.6813 73.3467 30.368 73.0267 29.968 72.8C29.568 72.56 29.1013 72.44 28.568 72.44C28.0346 72.44 27.5613 72.56 27.148 72.8C26.748 73.0267 26.4346 73.3533 26.208 73.78C25.9813 74.1933 25.868 74.6867 25.868 75.26V75.74C25.868 76.3267 25.9946 76.8467 26.248 77.3C26.5146 77.74 26.8813 78.08 27.348 78.32C27.828 78.5467 28.388 78.66 29.028 78.66C29.6013 78.66 30.1013 78.5733 30.528 78.4C30.968 78.2267 31.368 77.9667 31.728 77.62L33.388 79.42C32.8946 79.98 32.2746 80.4133 31.528 80.72C30.7813 81.0133 29.9213 81.16 28.948 81.16ZM42.5322 81V78.9L42.3322 78.44V74.68C42.3322 74.0133 42.1255 73.4933 41.7122 73.12C41.3122 72.7467 40.6922 72.56 39.8522 72.56C39.2789 72.56 38.7122 72.6533 38.1522 72.84C37.6055 73.0133 37.1389 73.2533 36.7522 73.56L35.6322 71.38C36.2189 70.9667 36.9255 70.6467 37.7522 70.42C38.5789 70.1933 39.4189 70.08 40.2722 70.08C41.9122 70.08 43.1855 70.4667 44.0922 71.24C44.9989 72.0133 45.4522 73.22 45.4522 74.86V81H42.5322ZM39.2522 81.16C38.4122 81.16 37.6922 81.02 37.0922 80.74C36.4922 80.4467 36.0322 80.0533 35.7122 79.56C35.3922 79.0667 35.2322 78.5133 35.2322 77.9C35.2322 77.26 35.3855 76.7 35.6922 76.22C36.0122 75.74 36.5122 75.3667 37.1922 75.1C37.8722 74.82 38.7589 74.68 39.8522 74.68H42.7122V76.5H40.1922C39.4589 76.5 38.9522 76.62 38.6722 76.86C38.4055 77.1 38.2722 77.4 38.2722 77.76C38.2722 78.16 38.4255 78.48 38.7322 78.72C39.0522 78.9467 39.4855 79.06 40.0322 79.06C40.5522 79.06 41.0189 78.94 41.4322 78.7C41.8455 78.4467 42.1455 78.08 42.3322 77.6L42.8122 79.04C42.5855 79.7333 42.1722 80.26 41.5722 80.62C40.9722 80.98 40.1989 81.16 39.2522 81.16ZM52.6759 81.16C51.4093 81.16 50.4226 80.84 49.7159 80.2C49.0093 79.5467 48.6559 78.58 48.6559 77.3V67.86H51.7759V77.26C51.7759 77.7133 51.8959 78.0667 52.1359 78.32C52.3759 78.56 52.7026 78.68 53.1159 78.68C53.6093 78.68 54.0293 78.5467 54.3759 78.28L55.2159 80.48C54.8959 80.7067 54.5093 80.88 54.0559 81C53.6159 81.1067 53.1559 81.16 52.6759 81.16ZM46.9959 72.88V70.48H54.4559V72.88H46.9959ZM63.5073 70.08C64.3607 70.08 65.1207 70.2533 65.7873 70.6C66.4673 70.9333 67.0007 71.4533 67.3873 72.16C67.774 72.8533 67.9673 73.7467 67.9673 74.84V81H64.8473V75.32C64.8473 74.4533 64.654 73.8133 64.2673 73.4C63.894 72.9867 63.3607 72.78 62.6673 72.78C62.174 72.78 61.7273 72.8867 61.3273 73.1C60.9407 73.3 60.634 73.6133 60.4073 74.04C60.194 74.4667 60.0873 75.0133 60.0873 75.68V81H56.9673V66.16H60.0873V73.22L59.3873 72.32C59.774 71.6 60.3273 71.0467 61.0473 70.66C61.7673 70.2733 62.5873 70.08 63.5073 70.08ZM76.2136 81.16C74.9869 81.16 73.9069 80.92 72.9736 80.44C72.0536 79.96 71.3403 79.3067 70.8336 78.48C70.3269 77.64 70.0736 76.6867 70.0736 75.62C70.0736 74.54 70.3203 73.5867 70.8136 72.76C71.3203 71.92 72.0069 71.2667 72.8736 70.8C73.7403 70.32 74.7203 70.08 75.8136 70.08C76.8669 70.08 77.8136 70.3067 78.6536 70.76C79.5069 71.2 80.1803 71.84 80.6736 72.68C81.1669 73.5067 81.4136 74.5 81.4136 75.66C81.4136 75.78 81.4069 75.92 81.3936 76.08C81.3803 76.2267 81.3669 76.3667 81.3536 76.5H72.6136V74.68H79.7136L78.5136 75.22C78.5136 74.66 78.4003 74.1733 78.1736 73.76C77.9469 73.3467 77.6336 73.0267 77.2336 72.8C76.8336 72.56 76.3669 72.44 75.8336 72.44C75.3003 72.44 74.8269 72.56 74.4136 72.8C74.0136 73.0267 73.7003 73.3533 73.4736 73.78C73.2469 74.1933 73.1336 74.6867 73.1336 75.26V75.74C73.1336 76.3267 73.2603 76.8467 73.5136 77.3C73.7803 77.74 74.1469 78.08 74.6136 78.32C75.0936 78.5467 75.6536 78.66 76.2936 78.66C76.8669 78.66 77.3669 78.5733 77.7936 78.4C78.2336 78.2267 78.6336 77.9667 78.9936 77.62L80.6536 79.42C80.1603 79.98 79.5403 80.4133 78.7936 80.72C78.0469 81.0133 77.1869 81.16 76.2136 81.16ZM83.4908 81V70.24H86.4708V73.28L86.0508 72.4C86.3708 71.64 86.8841 71.0667 87.5908 70.68C88.2974 70.28 89.1574 70.08 90.1708 70.08V72.96C90.0374 72.9467 89.9174 72.94 89.8108 72.94C89.7041 72.9267 89.5908 72.92 89.4708 72.92C88.6174 72.92 87.9241 73.1667 87.3908 73.66C86.8708 74.14 86.6108 74.8933 86.6108 75.92V81H83.4908ZM95.2153 81L90.6353 67H93.9953L97.9753 79.4H96.2953L100.455 67H103.455L107.455 79.4H105.835L109.915 67H113.015L108.435 81H104.955L101.415 70.12H102.335L98.6953 81H95.2153ZM114.78 81V70.24H117.9V81H114.78ZM116.34 68.74C115.767 68.74 115.3 68.5733 114.94 68.24C114.58 67.9067 114.4 67.4933 114.4 67C114.4 66.5067 114.58 66.0933 114.94 65.76C115.3 65.4267 115.767 65.26 116.34 65.26C116.913 65.26 117.38 65.42 117.74 65.74C118.1 66.0467 118.28 66.4467 118.28 66.94C118.28 67.46 118.1 67.8933 117.74 68.24C117.393 68.5733 116.927 68.74 116.34 68.74ZM124.415 81.16C123.495 81.16 122.609 81.0533 121.755 80.84C120.915 80.6133 120.249 80.3333 119.755 80L120.795 77.76C121.289 78.0667 121.869 78.32 122.535 78.52C123.215 78.7067 123.882 78.8 124.535 78.8C125.255 78.8 125.762 78.7133 126.055 78.54C126.362 78.3667 126.515 78.1267 126.515 77.82C126.515 77.5667 126.395 77.38 126.155 77.26C125.929 77.1267 125.622 77.0267 125.235 76.96C124.849 76.8933 124.422 76.8267 123.955 76.76C123.502 76.6933 123.042 76.6067 122.575 76.5C122.109 76.38 121.682 76.2067 121.295 75.98C120.909 75.7533 120.595 75.4467 120.355 75.06C120.129 74.6733 120.015 74.1733 120.015 73.56C120.015 72.88 120.209 72.28 120.595 71.76C120.995 71.24 121.569 70.8333 122.315 70.54C123.062 70.2333 123.955 70.08 124.995 70.08C125.729 70.08 126.475 70.16 127.235 70.32C127.995 70.48 128.629 70.7133 129.135 71.02L128.095 73.24C127.575 72.9333 127.049 72.7267 126.515 72.62C125.995 72.5 125.489 72.44 124.995 72.44C124.302 72.44 123.795 72.5333 123.475 72.72C123.155 72.9067 122.995 73.1467 122.995 73.44C122.995 73.7067 123.109 73.9067 123.335 74.04C123.575 74.1733 123.889 74.28 124.275 74.36C124.662 74.44 125.082 74.5133 125.535 74.58C126.002 74.6333 126.469 74.72 126.935 74.84C127.402 74.96 127.822 75.1333 128.195 75.36C128.582 75.5733 128.895 75.8733 129.135 76.26C129.375 76.6333 129.495 77.1267 129.495 77.74C129.495 78.4067 129.295 79 128.895 79.52C128.495 80.0267 127.915 80.4267 127.155 80.72C126.409 81.0133 125.495 81.16 124.415 81.16ZM136.76 81.16C135.534 81.16 134.454 80.92 133.52 80.44C132.6 79.96 131.887 79.3067 131.38 78.48C130.874 77.64 130.62 76.6867 130.62 75.62C130.62 74.54 130.867 73.5867 131.36 72.76C131.867 71.92 132.554 71.2667 133.42 70.8C134.287 70.32 135.267 70.08 136.36 70.08C137.414 70.08 138.36 70.3067 139.2 70.76C140.054 71.2 140.727 71.84 141.22 72.68C141.714 73.5067 141.96 74.5 141.96 75.66C141.96 75.78 141.954 75.92 141.94 76.08C141.927 76.2267 141.914 76.3667 141.9 76.5H133.16V74.68H140.26L139.06 75.22C139.06 74.66 138.947 74.1733 138.72 73.76C138.494 73.3467 138.18 73.0267 137.78 72.8C137.38 72.56 136.914 72.44 136.38 72.44C135.847 72.44 135.374 72.56 134.96 72.8C134.56 73.0267 134.247 73.3533 134.02 73.78C133.794 74.1933 133.68 74.6867 133.68 75.26V75.74C133.68 76.3267 133.807 76.8467 134.06 77.3C134.327 77.74 134.694 78.08 135.16 78.32C135.64 78.5467 136.2 78.66 136.84 78.66C137.414 78.66 137.914 78.5733 138.34 78.4C138.78 78.2267 139.18 77.9667 139.54 77.62L141.2 79.42C140.707 79.98 140.087 80.4133 139.34 80.72C138.594 81.0133 137.734 81.16 136.76 81.16Z" fill="#D9D9D9"/>
<path d="M60.2754 0L54.1304 8.67C56.1787 8.16 58.2271 7.65 60.2754 7.65C62.3237 7.65 64.372 8.16 66.4203 8.67L60.2754 0ZM88.4396 30.09V12.75C88.4396 9.945 86.1353 7.65 83.3188 7.65C80.5024 7.65 78.1981 9.945 78.1981 12.75V30.09C76.6618 31.62 75.6377 33.66 75.6377 35.7C75.6377 40.035 78.9662 43.35 83.3188 43.35C87.6715 43.35 91 40.035 91 35.7C91 33.405 89.9758 31.365 88.4396 30.09ZM85.8792 15.3H80.7585V12.75C80.7585 11.22 81.7826 10.2 83.3188 10.2C84.8551 10.2 85.8792 11.22 85.8792 12.75V15.3ZM48.7536 11.985L38 12.75L42.6087 22.44C42.8647 20.4 43.6329 18.36 44.657 16.575C45.9372 14.79 47.2174 13.26 48.7536 11.985ZM60.2754 12.75C53.1063 12.75 47.4734 18.36 47.4734 25.5C47.4734 32.64 53.1063 38.25 60.2754 38.25C67.4444 38.25 73.0773 32.64 73.0773 25.5C73.0773 18.36 67.4444 12.75 60.2754 12.75ZM60.2754 33.15C55.9227 33.15 52.5942 29.835 52.5942 25.5C52.5942 21.165 55.9227 17.85 60.2754 17.85C64.628 17.85 67.9565 21.165 67.9565 25.5C67.9565 29.835 64.628 33.15 60.2754 33.15ZM42.8647 28.56L38.256 38.25L48.7536 39.27C47.4734 37.995 45.9372 36.21 44.913 34.425C43.6329 32.64 43.1208 30.6 42.8647 28.56ZM54.1304 42.33L60.2754 51L66.4203 42.33C64.372 42.84 62.3237 43.35 60.2754 43.35C57.971 43.35 55.9227 42.84 54.1304 42.33Z" fill="#D9D9D9"/>
</svg>
