<svg width="53" height="51" viewBox="0 0 53 51" fill="none" xmlns="http://www.w3.org/2000/svg">
<path d="M22.2754 0L16.1304 8.67C18.1787 8.16 20.2271 7.65 22.2754 7.65C24.3237 7.65 26.372 8.16 28.4203 8.67L22.2754 0ZM50.4396 30.09V12.75C50.4396 9.945 48.1353 7.65 45.3188 7.65C42.5024 7.65 40.1981 9.945 40.1981 12.75V30.09C38.6618 31.62 37.6377 33.66 37.6377 35.7C37.6377 40.035 40.9662 43.35 45.3188 43.35C49.6715 43.35 53 40.035 53 35.7C53 33.405 51.9758 31.365 50.4396 30.09ZM47.8792 15.3H42.7585V12.75C42.7585 11.22 43.7826 10.2 45.3188 10.2C46.8551 10.2 47.8792 11.22 47.8792 12.75V15.3ZM10.7536 11.985L0 12.75L4.6087 22.44C4.86473 20.4 5.63285 18.36 6.657 16.575C7.9372 14.79 9.21739 13.26 10.7536 11.985ZM22.2754 12.75C15.1063 12.75 9.47343 18.36 9.47343 25.5C9.47343 32.64 15.1063 38.25 22.2754 38.25C29.4444 38.25 35.0773 32.64 35.0773 25.5C35.0773 18.36 29.4444 12.75 22.2754 12.75ZM22.2754 33.15C17.9227 33.15 14.5942 29.835 14.5942 25.5C14.5942 21.165 17.9227 17.85 22.2754 17.85C26.628 17.85 29.9565 21.165 29.9565 25.5C29.9565 29.835 26.628 33.15 22.2754 33.15ZM4.86473 28.56L0.256039 38.25L10.7536 39.27C9.47343 37.995 7.9372 36.21 6.91304 34.425C5.63285 32.64 5.12077 30.6 4.86473 28.56ZM16.1304 42.33L22.2754 51L28.4203 42.33C26.372 42.84 24.3237 43.35 22.2754 43.35C19.971 43.35 17.9227 42.84 16.1304 42.33Z" fill="#092324"/>
</svg>
